<svg xmlns="http://www.w3.org/2000/svg" viewBox="0 0 1200 2400" style="background-color: #f8f9fa;">
  <!-- Title -->
  <text x="600" y="40" font-family="Arial, sans-serif" font-size="32" font-weight="bold" text-anchor="middle" fill="#1a1a1a">
    Library Management System - 프로젝트 로드맵
  </text>
  <text x="600" y="70" font-family="Arial, sans-serif" font-size="16" text-anchor="middle" fill="#666">
    ECS Blue/Green 배포를 통한 AWS 클라우드 마이그레이션
  </text>
  
  <!-- Phase 1: 완료 -->
  <g id="phase1">
    <rect x="50" y="120" width="1100" height="350" rx="10" fill="#d4edda" stroke="#28a745" stroke-width="3"/>
    <text x="70" y="155" font-family="Arial, sans-serif" font-size="24" font-weight="bold" fill="#155724">
      ✓ Phase 1: 애플리케이션 개발 (완료)
    </text>
    
    <!-- Phase 1 Items -->
    <g id="phase1-items">
      <rect x="80" y="180" width="500" height="40" rx="5" fill="#ffffff" stroke="#28a745" stroke-width="2"/>
      <text x="100" y="207" font-family="Arial, sans-serif" font-size="14" fill="#155724">✓ Spring Boot 애플리케이션 구조</text>
      
      <rect x="620" y="180" width="500" height="40" rx="5" fill="#ffffff" stroke="#28a745" stroke-width="2"/>
      <text x="640" y="207" font-family="Arial, sans-serif" font-size="14" fill="#155724">✓ JPA/Hibernate 설정</text>
      
      <rect x="80" y="235" width="500" height="40" rx="5" fill="#ffffff" stroke="#28a745" stroke-width="2"/>
      <text x="100" y="262" font-family="Arial, sans-serif" font-size="14" fill="#155724">✓ Spring Security 인증/인가</text>
      
      <rect x="620" y="235" width="500" height="40" rx="5" fill="#ffffff" stroke="#28a745" stroke-width="2"/>
      <text x="640" y="262" font-family="Arial, sans-serif" font-size="14" fill="#155724">✓ Thymeleaf 템플릿 엔진</text>
      
      <rect x="80" y="290" width="500" height="40" rx="5" fill="#ffffff" stroke="#28a745" stroke-width="2"/>
      <text x="100" y="317" font-family="Arial, sans-serif" font-size="14" fill="#155724">✓ 게시판/댓글/좋아요 기능</text>
      
      <rect x="620" y="290" width="500" height="40" rx="5" fill="#ffffff" stroke="#28a745" stroke-width="2"/>
      <text x="640" y="317" font-family="Arial, sans-serif" font-size="14" fill="#155724">✓ 파일 업로드 기능</text>
      
      <rect x="80" y="345" width="500" height="40" rx="5" fill="#ffffff" stroke="#28a745" stroke-width="2"/>
      <text x="100" y="372" font-family="Arial, sans-serif" font-size="14" fill="#155724">✓ 단위 테스트 작성</text>
      
      <rect x="620" y="345" width="500" height="40" rx="5" fill="#ffffff" stroke="#28a745" stroke-width="2"/>
      <text x="640" y="372" font-family="Arial, sans-serif" font-size="14" fill="#155724">✓ MySQL 데이터베이스 연동</text>
    </g>
  </g>
  
  <!-- Phase 2: 완료 -->
  <g id="phase2">
    <rect x="50" y="500" width="1100" height="300" rx="10" fill="#d4edda" stroke="#28a745" stroke-width="3"/>
    <text x="70" y="535" font-family="Arial, sans-serif" font-size="24" font-weight="bold" fill="#155724">
      ✓ Phase 2: 컨테이너화 (완료)
    </text>
    
    <!-- Phase 2 Items -->
    <g id="phase2-items">
      <rect x="80" y="560" width="500" height="40" rx="5" fill="#ffffff" stroke="#28a745" stroke-width="2"/>
      <text x="100" y="587" font-family="Arial, sans-serif" font-size="14" fill="#155724">✓ Dockerfile 작성 (멀티스테이지 빌드)</text>
      
      <rect x="620" y="560" width="500" height="40" rx="5" fill="#ffffff" stroke="#28a745" stroke-width="2"/>
      <text x="640" y="587" font-family="Arial, sans-serif" font-size="14" fill="#155724">✓ .dockerignore 설정</text>
      
      <rect x="80" y="615" width="500" height="40" rx="5" fill="#ffffff" stroke="#28a745" stroke-width="2"/>
      <text x="100" y="642" font-family="Arial, sans-serif" font-size="14" fill="#155724">✓ docker-compose.yml (MySQL 포함)</text>
      
      <rect x="620" y="615" width="500" height="40" rx="5" fill="#ffffff" stroke="#28a745" stroke-width="2"/>
      <text x="640" y="642" font-family="Arial, sans-serif" font-size="14" fill="#155724">✓ 로컬 Docker 환경 테스트</text>
      
      <rect x="80" y="670" width="500" height="40" rx="5" fill="#ffffff" stroke="#28a745" stroke-width="2"/>
      <text x="100" y="697" font-family="Arial, sans-serif" font-size="14" fill="#155724">✓ Docker Hub 이미지 푸시 준비</text>
      
      <rect x="620" y="670" width="500" height="40" rx="5" fill="#ffffff" stroke="#28a745" stroke-width="2"/>
      <text x="640" y="697" font-family="Arial, sans-serif" font-size="14" fill="#155724">✓ 환경 변수 외부화</text>
    </g>
  </g>
  
  <!-- Phase 3: 진행 중 -->
  <g id="phase3">
    <rect x="50" y="830" width="1100" height="480" rx="10" fill="#fff3cd" stroke="#ffc107" stroke-width="4"/>
    <text x="70" y="865" font-family="Arial, sans-serif" font-size="24" font-weight="bold" fill="#856404">
      ⚙ Phase 3: AWS 인프라 구축 (진행 중)
    </text>
    
    <!-- Current Status -->
    <rect x="80" y="885" width="1040" height="50" rx="5" fill="#fff" stroke="#ffc107" stroke-width="2"/>
    <text x="100" y="912" font-family="Arial, sans-serif" font-size="16" font-weight="bold" fill="#856404">
      현재 단계: AWS 리소스 생성 및 설정
    </text>
    
    <!-- Phase 3 Items -->
    <g id="phase3-items">
      <rect x="80" y="955" width="500" height="40" rx="5" fill="#ffffff" stroke="#ffc107" stroke-width="2"/>
      <text x="100" y="982" font-family="Arial, sans-serif" font-size="14" fill="#856404">□ IAM User 생성 및 권한 설정</text>
      
      <rect x="620" y="955" width="500" height="40" rx="5" fill="#ffffff" stroke="#ffc107" stroke-width="2"/>
      <text x="640" y="982" font-family="Arial, sans-serif" font-size="14" fill="#856404">□ ECR Repository 생성</text>
      
      <rect x="80" y="1010" width="500" height="40" rx="5" fill="#ffffff" stroke="#ffc107" stroke-width="2"/>
      <text x="100" y="1037" font-family="Arial, sans-serif" font-size="14" fill="#856404">□ VPC 및 Subnet 설정</text>
      
      <rect x="620" y="1010" width="500" height="40" rx="5" fill="#ffffff" stroke="#ffc107" stroke-width="2"/>
      <text x="640" y="1037" font-family="Arial, sans-serif" font-size="14" fill="#856404">□ Security Group 생성</text>
      
      <rect x="80" y="1065" width="500" height="40" rx="5" fill="#ffffff" stroke="#ffc107" stroke-width="2"/>
      <text x="100" y="1092" font-family="Arial, sans-serif" font-size="14" fill="#856404">□ RDS MySQL 인스턴스 생성</text>
      
      <rect x="620" y="1065" width="500" height="40" rx="5" fill="#ffffff" stroke="#ffc107" stroke-width="2"/>
      <text x="640" y="1092" font-family="Arial, sans-serif" font-size="14" fill="#856404">□ Application Load Balancer 생성</text>
      
      <rect x="80" y="1120" width="500" height="40" rx="5" fill="#ffffff" stroke="#ffc107" stroke-width="2"/>
      <text x="100" y="1147" font-family="Arial, sans-serif" font-size="14" fill="#856404">□ ECS Cluster 생성</text>
      
      <rect x="620" y="1120" width="500" height="40" rx="5" fill="#ffffff" stroke="#ffc107" stroke-width="2"/>
      <text x="640" y="1147" font-family="Arial, sans-serif" font-size="14" fill="#856404">□ ECS Task Definition 작성</text>
      
      <rect x="80" y="1175" width="500" height="40" rx="5" fill="#ffffff" stroke="#ffc107" stroke-width="2"/>
      <text x="100" y="1202" font-family="Arial, sans-serif" font-size="14" fill="#856404">□ ECS Service 생성 (Blue/Green)</text>
      
      <rect x="620" y="1175" width="500" height="40" rx="5" fill="#ffffff" stroke="#ffc107" stroke-width="2"/>
      <text x="640" y="1202" font-family="Arial, sans-serif" font-size="14" fill="#856404">□ S3 버킷 생성 (파일 저장용)</text>
      
      <rect x="80" y="1230" width="500" height="40" rx="5" fill="#ffffff" stroke="#ffc107" stroke-width="2"/>
      <text x="100" y="1257" font-family="Arial, sans-serif" font-size="14" fill="#856404">□ CloudWatch 로그 설정</text>
      
      <rect x="620" y="1230" width="500" height="40" rx="5" fill="#ffffff" stroke="#ffc107" stroke-width="2"/>
      <text x="640" y="1257" font-family="Arial, sans-serif" font-size="14" fill="#856404">□ 수동 배포 테스트</text>
    </g>
  </g>
  
  <!-- Phase 4: 대기 중 -->
  <g id="phase4">
    <rect x="50" y="1340" width="1100" height="350" rx="10" fill="#e2e3e5" stroke="#6c757d" stroke-width="2"/>
    <text x="70" y="1375" font-family="Arial, sans-serif" font-size="24" font-weight="bold" fill="#495057">
      ⏳ Phase 4: CI/CD 파이프라인 (대기 중)
    </text>
    
    <!-- Phase 4 Items -->
    <g id="phase4-items">
      <rect x="80" y="1400" width="500" height="40" rx="5" fill="#f8f9fa" stroke="#6c757d" stroke-width="1"/>
      <text x="100" y="1427" font-family="Arial, sans-serif" font-size="14" fill="#6c757d">□ GitHub Actions Workflow 작성</text>
      
      <rect x="620" y="1400" width="500" height="40" rx="5" fill="#f8f9fa" stroke="#6c757d" stroke-width="1"/>
      <text x="640" y="1427" font-family="Arial, sans-serif" font-size="14" fill="#6c757d">□ GitHub Secrets 설정</text>
      
      <rect x="80" y="1455" width="500" height="40" rx="5" fill="#f8f9fa" stroke="#6c757d" stroke-width="1"/>
      <text x="100" y="1482" font-family="Arial, sans-serif" font-size="14" fill="#6c757d">□ CodeDeploy 애플리케이션 생성</text>
      
      <rect x="620" y="1455" width="500" height="40" rx="5" fill="#f8f9fa" stroke="#6c757d" stroke-width="1"/>
      <text x="640" y="1482" font-family="Arial, sans-serif" font-size="14" fill="#6c757d">□ CodeDeploy 배포 그룹 설정</text>
      
      <rect x="80" y="1510" width="500" height="40" rx="5" fill="#f8f9fa" stroke="#6c757d" stroke-width="1"/>
      <text x="100" y="1537" font-family="Arial, sans-serif" font-size="14" fill="#6c757d">□ Blue/Green 배포 설정</text>
      
      <rect x="620" y="1510" width="500" height="40" rx="5" fill="#f8f9fa" stroke="#6c757d" stroke-width="1"/>
      <text x="640" y="1537" font-family="Arial, sans-serif" font-size="14" fill="#6c757d">□ appspec.yml 작성</text>
      
      <rect x="80" y="1565" width="500" height="40" rx="5" fill="#f8f9fa" stroke="#6c757d" stroke-width="1"/>
      <text x="100" y="1592" font-family="Arial, sans-serif" font-size="14" fill="#6c757d">□ 자동 배포 테스트</text>
      
      <rect x="620" y="1565" width="500" height="40" rx="5" fill="#f8f9fa" stroke="#6c757d" stroke-width="1"/>
      <text x="640" y="1592" font-family="Arial, sans-serif" font-size="14" fill="#6c757d">□ 롤백 시나리오 테스트</text>
    </g>
  </g>
  
  <!-- Phase 5: 대기 중 -->
  <g id="phase5">
    <rect x="50" y="1720" width="1100" height="250" rx="10" fill="#e2e3e5" stroke="#6c757d" stroke-width="2"/>
    <text x="70" y="1755" font-family="Arial, sans-serif" font-size="24" font-weight="bold" fill="#495057">
      ⏳ Phase 5: 모니터링 및 최적화 (대기 중)
    </text>
    
    <!-- Phase 5 Items -->
    <g id="phase5-items">
      <rect x="80" y="1780" width="500" height="40" rx="5" fill="#f8f9fa" stroke="#6c757d" stroke-width="1"/>
      <text x="100" y="1807" font-family="Arial, sans-serif" font-size="14" fill="#6c757d">□ CloudWatch 대시보드 구성</text>
      
      <rect x="620" y="1780" width="500" height="40" rx="5" fill="#f8f9fa" stroke="#6c757d" stroke-width="1"/>
      <text x="640" y="1807" font-family="Arial, sans-serif" font-size="14" fill="#6c757d">□ 알람 및 알림 설정</text>
      
      <rect x="80" y="1835" width="500" height="40" rx="5" fill="#f8f9fa" stroke="#6c757d" stroke-width="1"/>
      <text x="100" y="1862" font-family="Arial, sans-serif" font-size="14" fill="#6c757d">□ Auto Scaling 정책 설정</text>
      
      <rect x="620" y="1835" width="500" height="40" rx="5" fill="#f8f9fa" stroke="#6c757d" stroke-width="1"/>
      <text x="640" y="1862" font-family="Arial, sans-serif" font-size="14" fill="#6c757d">□ 비용 최적화</text>
      
      <rect x="80" y="1890" width="500" height="40" rx="5" fill="#f8f9fa" stroke="#6c757d" stroke-width="1"/>
      <text x="100" y="1917" font-family="Arial, sans-serif" font-size="14" fill="#6c757d">□ 성능 튜닝</text>
      
      <rect x="620" y="1890" width="500" height="40" rx="5" fill="#f8f9fa" stroke="#6c757d" stroke-width="1"/>
      <text x="640" y="1917" font-family="Arial, sans-serif" font-size="14" fill="#6c757d">□ 보안 검토 및 강화</text>
    </g>
  </g>
  
  <!-- Progress Summary -->
  <g id="summary">
    <rect x="50" y="2000" width="1100" height="350" rx="10" fill="#e7f3ff" stroke="#007bff" stroke-width="3"/>
    <text x="70" y="2035" font-family="Arial, sans-serif" font-size="24" font-weight="bold" fill="#004085">
      📊 진행 상황 요약
    </text>
    
    <!-- Progress bars -->
    <text x="80" y="2075" font-family="Arial, sans-serif" font-size="16" fill="#004085">Phase 1 (완료):</text>
    <rect x="250" y="2060" width="850" height="25" rx="5" fill="#f8f9fa" stroke="#28a745" stroke-width="2"/>
    <rect x="250" y="2060" width="850" height="25" rx="5" fill="#28a745"/>
    <text x="680" y="2078" font-family="Arial, sans-serif" font-size="14" fill="#fff" font-weight="bold">100%</text>
    
    <text x="80" y="2125" font-family="Arial, sans-serif" font-size="16" fill="#004085">Phase 2 (완료):</text>
    <rect x="250" y="2110" width="850" height="25" rx="5" fill="#f8f9fa" stroke="#28a745" stroke-width="2"/>
    <rect x="250" y="2110" width="850" height="25" rx="5" fill="#28a745"/>
    <text x="680" y="2128" font-family="Arial, sans-serif" font-size="14" fill="#fff" font-weight="bold">100%</text>
    
    <text x="80" y="2175" font-family="Arial, sans-serif" font-size="16" fill="#004085">Phase 3 (진행 중):</text>
    <rect x="250" y="2160" width="850" height="25" rx="5" fill="#f8f9fa" stroke="#ffc107" stroke-width="2"/>
    <rect x="250" y="2160" width="170" height="25" rx="5" fill="#ffc107"/>
    <text x="680" y="2178" font-family="Arial, sans-serif" font-size="14" fill="#856404" font-weight="bold">20%</text>
    
    <text x="80" y="2225" font-family="Arial, sans-serif" font-size="16" fill="#004085">Phase 4 (대기):</text>
    <rect x="250" y="2210" width="850" height="25" rx="5" fill="#f8f9fa" stroke="#6c757d" stroke-width="2"/>
    <text x="680" y="2228" font-family="Arial, sans-serif" font-size="14" fill="#6c757d" font-weight="bold">0%</text>
    
    <text x="80" y="2275" font-family="Arial, sans-serif" font-size="16" fill="#004085">Phase 5 (대기):</text>
    <rect x="250" y="2260" width="850" height="25" rx="5" fill="#f8f9fa" stroke="#6c757d" stroke-width="2"/>
    <text x="680" y="2278" font-family="Arial, sans-serif" font-size="14" fill="#6c757d" font-weight="bold">0%</text>
    
    <!-- Overall Progress -->
    <text x="80" y="2325" font-family="Arial, sans-serif" font-size="18" font-weight="bold" fill="#004085">전체 진행률:</text>
    <rect x="250" y="2310" width="850" height="30" rx="5" fill="#f8f9fa" stroke="#007bff" stroke-width="2"/>
    <rect x="250" y="2310" width="357" height="30" rx="5" fill="#007bff"/>
    <text x="680" y="2333" font-family="Arial, sans-serif" font-size="16" fill="#004085" font-weight="bold">42%</text>
  </g>
  
  <!-- Footer -->
  <text x="600" y="2380" font-family="Arial, sans-serif" font-size="14" text-anchor="middle" fill="#6c757d">
    생성일: 2025-10-26 | Library Management System by [Your Team]
  </text>
</svg>